<?xml version="1.0" encoding="UTF-8"?>
<svg id="a" data-name="Layer 1" xmlns="http://www.w3.org/2000/svg" viewBox="0 0 382.98 386.98">
  <defs>
    <style>
      .b {
        fill: #090d0d;
      }
    </style>
  </defs>
  <polygon class="b" points="145.4 347.41 146.03 347.01 145.34 347.19 145.4 347.41"/>
  <path class="b" d="M292.77,187.3l13.14-4.26,12.170-4.4,12.94-4.45.33-.19,14.74-7.85c13.82-7.36,25.34-18.39,33.3-31.87,2.08-3.53,3.59-6.09,3.6-6.160-3.62.72-7.24,1.42-10.84,2.24l-1.78.62-16.03,5.47-16.75,5.91-15.98,5.67-16.05,5.99-15.83,6.52-15.96,6.29-.06.03-15.08,7.07-15.55,6.66-15.94,7.46-14.78,7.44-15.74,7.73-14.81,8.09-15.42,8.23-1.94,1.09,3.55-2.27.05-.03,12.32-6.91,12.7-7.45.05-.03,11.92-6.17,12.35-6.53,13.04-6.54,12.23-6.46,13.14-6.1,12.13-5.76,12.94-6.16,13.04-5.52,13.25-5.27,12.73-5.49,12.83-5.2c.12-.05.23-.12.33-.22l15.67-12.2c8.47-6.59,16.03-14.27,22.49-22.84,4.72-6.26,9.38-12.44,9.4-12.48-2.28.19-4.54.51-6.82.81l-6.35,2.48-16.37,6.33-16.39,6.7-16.29,6.5-16.38,7.22-15.71,7.9-15.65,7.66-15.79,7.99-15.59,8.34-15.58,8.53-15.51,8.68-15.02,8.34-15.06,9.21-14.87,9.16-15.24,9.41-13.36,8.88,5.74-4.11,12.27-8.08,12.12-8,12.52-8.18,12.49-7.41,12.47-7.57,12.61-7.74,12.73-7.01.05-.03,12-7.62.08-.05,13.17-6.68,12.54-7.19.05-.03,13.37-6.65,12.79-6.7.05-.02,13.13-5.97,13.12-5.88,10.59-4.69c2.01-.89,3.760-2.3,5.06-4.08l9.7-13.61c5.49-6.06,11.15-10.78,15.13-17.93,3.1-5.57,6.22-11.21,6.23-11.3-.81.14-1.62.29-2.44.43-4.98.87-9.84,3.58-14.63,5.2-4.65,2.31-9.84,4.02-14.88,5.21-.26.06-2.27.9-2.51.9l-8.19,3.77-.05.03-15.42,8.23-15.16,8.7-15.32,8.41-15.34,8.26-.05.03-14.84,9.06-15.41,8.63-14.89,9.27-14.66,9.27-14.36,9.1-15.21,9.79-14.41,9.9-4.16,2.94,3.54-2.6,11.36-8.48,11.06-7.61,12.1-7.61,11.01-7.65,11.41-7.88.06-.04,12.07-7.11.06-.04,11.24-7.79.07-.04,11.94-6.89.04-.03,11.55-7.5.07-.04,12-6.41,12.03-7.15,12.19-6.71,11.44-6.54.24-.19,30.03-33.34c.3-.34.56-.7.76-1.1,1.34-2.65,3.51-8.36,7.85-14.89-.69.33-1.38.66-2.09.96-1.17.5-2.36.95-3.56,1.37l-4.23,2.41-15.26,8.47-14.62,8.18-.11.07-13.7,10.23-.09.06-14.27,8.49-14.96,9.58-14.24,8.74-14.11,9.09-14.86,9.36-14.17,9.08-14.11,9.86-13.68,9.19-.05.03-13.58,10.35-4.32,3.02,8.44-7.16.05-.04,10.49-7.79,10.67-7.48,10.79-7.59,10.99-7.26,10.83-7.46.04-.03,10.71-6.55.05-.03,10.48-7.26,10.87-7.26,11.41-7.21,10.41-7.06,11.38-6.93c.11-.07.21-.16.29-.27l35.54-45.17c.99-1.92,1.65-7.41,5.77-13.9l-.19-.22c-4.44,2.18-8.53,5.13-12.86,7.46l-.33.19-11.94,7.53-13.94,9.45-13.33,9.11-13.82,9.05-13.73,9.45-.1.08-12.36,11-.09.07-13.66,9.48-13.5,9.44-13.42,9.49-13.39,9.71-.04.03-12.89,10.52-12.95,10.2-.06.05-12.33,11.29-12.45,10.54-12.62,11.51-12.15,11.41-12.38,11.06-.07-.05-7.69,9.77-7.77,10.91-7.45,11.42-7.5,12.61-7.34,12.87-7.26,13.4-.03.06-6.97,15.01-6.56,15.36-6.28,15.98-6.95,16.47-.02.06-6.04,17.7-6.26,18.04-5.76,19.43L.04,385.71c-.22.75.47,1.45,1.22,1.23l18.2-5.26,19.82-5.47,19.3-5.27,19.51-5.21,19.68-5.74,19.66-5.16,19.94-5.63,7.96-2.02-.03-.1,1.01-.27-.29.19,11.08-2.81,1.69-.47.08-.02,6.29-1.2.11-.03,8.32-2.64.06-.02,7.76-1.88,8.32-1.92,8.95-1.92,7.81-1.6,8.66-1.62h.06s8.78-1.1,8.78-1.1l8.43-.96h.06s8.18-1.42,8.18-1.42l8.66-1.08.09-.02,7.9-1.74,8.63-1.8h.05s8.4-1.29,8.4-1.29l8.54-1.64c.16-.03.3-.1.42-.19l51.92-40.94c.1-.08.18-.18.24-.28-4.25.24-8.5.15-12.76.15l-8.85,1.26-12.06,1.75-12.12,2.32h-.05s-11.85,2.96-11.85,2.96l-.13.04-10.65,4.26-.2.06-12.26,2.16-12.03,2.57-11.57,2.54-12.29,2.69-11.93,2.72-11.75,3.01-11.15,3.19-11.66,3.52-11.8,3.9-3.24,1.05,4.1-1.73.08-.03,8.67-2.85,9.43-2.57,8.92-2.66,8.78-2.68,9.56-3.04.05-.02,8.97-2.3,8.6-2.43.06-.02,9.49-2,8.96-2.29.07-.02,9.3-1.64.1-.02,9.34-2.68,8.85-2.09,8.93-2.16,9.25-2.19.25-.1,67.95-37.58c.35-.2.51-.52.51-.84-3.51.31-7.03.2-10.55.14l-13.63,2.24-13.4,2.64-14.09,2.22h-.06s-13.68,3.05-13.68,3.05l-.15.05-12.61,5.07-.11.04-13.17,3.54-13.18,4.11-13.67,3.85-.08.02-12.58,4.67-.07.02-13.65,3.93-.05.02-12.8,4.48-13.5,4.4-13.01,4.16.75-.28,10.84-4.2.06-.02,10.36-3.3,10.6-3.59,10.69-3.84,10.65-4.29,11.11-3.82,10.61-3.67,10.57-3.49,11.13-3.81.06-.02,10.26-2.86,11.17-2.72,11.45-2.58,10.2-2.18c.16-.03.31-.11.44-.22l53.99-46.82c.17-.14.25-.31.3-.49-2.47.42-4.93.87-7.39,1.41-3.35.73-6.73,1.06-10.11,1.43l-9.3,2.33-14.57,3.44-.08.02-14.46,4.81-14.18,4.11-14.6,4.44-14.39,4.45-14.24,4.83-14.62,5.27-13.74,4.63-.06.02-14.58,5.93-14.09,5.1-13.92,5.31-.05.02-13.86,6.16-3.68,1.54,6.65-2.88,11.85-5.75.08-.03,12.19-4.65,11.7-4.9,11.43-5.1.07-.03,12.16-4.29.07-.03,11.46-5.12.07-.03,12.29-4.36,11.63-4.22,12.32-4.13,11.89-3.88,12.2-3.67,12.84-3.81,11.6-3.86c.14-.05.27-.13.38-.23l45.03-39.76c-4.28.23-13.45,1.08-17.68,1.83l-14.83,4.52-14.71,4.46-15.4,4.86-14.78,5.43-14.66,4.96,10.09-4.33.08-.03ZM121.22,198.63l1.33-1.05s.03-.02.04-.03l2.49-1.75-3.87,2.83ZM153.26,249.56l-10.06,4.92,3.23-1.840s.05-.02.07-.04l8.91-4.18-2.15,1.14ZM268.72,198.94s-.07.04-.11.05l-14.68,5.56-15.01,5.57-14.66,5.39-14.53,6-14.3,6.75-14.12,6.92-12.39,6.17,1.62-.88,11.61-6.52s.03-.02.05-.03l11.91-5.8,12.61-5.46,11.870-5.86s.04-.02.06-.03l12.1-5.05,12.17-4.75,12.7-5.06,12.65-4.76,12.45-4.71,1.14-.49-13.14,6.97Z"/>
</svg>
